HIERARCHY
ROOT root
{
	OFFSET	0	13.1	24.9
	CHANNELS 6  Xposition Yposition Zposition Xrotation Yrotation Zrotation
	JOINT spine_1
	{
		OFFSET	0	9.99999	0
		CHANNELS 3  Xrotation Yrotation Zrotation
		JOINT spine_2
		{
			OFFSET	0	112	-10
			CHANNELS 3  Xrotation Yrotation Zrotation
			JOINT spine_3
			{
				OFFSET	0	206.5	19.3
				CHANNELS 3  Xrotation Yrotation Zrotation
				JOINT spine_4
				{
					OFFSET	0	110.4	14.6
					CHANNELS 3  Xrotation Yrotation Zrotation
					JOINT neck_1
					{
						OFFSET	0	71.8	-50.3
						CHANNELS 3  Xrotation Yrotation Zrotation
						JOINT neck_2
						{
							OFFSET	0	86.2	-25.8
							CHANNELS 3  Xrotation Yrotation Zrotation
							JOINT head_ee
							{
								OFFSET	0	179.8	-8.7
								CHANNELS 3  Xrotation Yrotation Zrotation
								End Site
								{
									OFFSET	1	0	0
								}
							}
						}
					}
					JOINT left_clavicle
					{
						OFFSET	-43.2	22.4	-70.8
						CHANNELS 3  Xrotation Yrotation Zrotation
						JOINT left_shoulder
						{
							OFFSET	-93.9	-5.79999	48.7
							CHANNELS 3  Xrotation Yrotation Zrotation
							JOINT left_elbow
							{
								OFFSET	-291.4	-30.8	15.2
								CHANNELS 3  Xrotation Yrotation Zrotation
								JOINT left_lowarm_twist
								{
									OFFSET	-110.7	-3.89999	13.6
									CHANNELS 3  Xrotation Yrotation Zrotation
									JOINT left_hand
									{
										OFFSET	-110.7	-3.89999	13.6
										CHANNELS 3  Xrotation Yrotation Zrotation
										JOINT left_ee
										{
											OFFSET	-80.8	-5.10001	12.1
											CHANNELS 3  Xrotation Yrotation Zrotation
											End Site
											{
												OFFSET	1	0	0
											}
										}
									}
								}
							}
						}
					}
					JOINT right_clavicle
					{
						OFFSET	43.2	22.4	-70.8
						CHANNELS 3  Xrotation Yrotation Zrotation
						JOINT right_shoulder
						{
							OFFSET	93.9	-5.79999	48.7
							CHANNELS 3  Xrotation Yrotation Zrotation
							JOINT right_elbow
							{
								OFFSET	291.4	-30.8	15.2
								CHANNELS 3  Xrotation Yrotation Zrotation
								JOINT right_lowarm_twist
								{
									OFFSET	110.7	-3.89999	13.6
									CHANNELS 3  Xrotation Yrotation Zrotation
									JOINT right_hand
									{
										OFFSET	110.7	-3.89999	13.6
										CHANNELS 3  Xrotation Yrotation Zrotation
										JOINT right_ee
										{
											OFFSET	80.8	-5.10001	12.1
											CHANNELS 3  Xrotation Yrotation Zrotation
											End Site
											{
												OFFSET	1	0	0
											}
										}
									}
								}
							}
						}
					}
				}
			}
		}
	}
	JOINT left_hip
	{
		OFFSET	-82.8	-127.5	0.300001
		CHANNELS 3  Xrotation Yrotation Zrotation
		JOINT left_knee
		{
			OFFSET	-28.2	-396.7	2.2
			CHANNELS 3  Xrotation Yrotation Zrotation
			JOINT left_ankle
			{
				OFFSET	-11.7	-411.3	35.4
				CHANNELS 3  Xrotation Yrotation Zrotation
				JOINT left_toes
				{
					OFFSET	0	-60	-88.6
					CHANNELS 3  Xrotation Yrotation Zrotation
					JOINT left_foot_ee
					{
						OFFSET	-22.5	-16.5	-42.2
						CHANNELS 3  Xrotation Yrotation Zrotation
						End Site
						{
							OFFSET	1	0	0
						}
					}
				}
			}
		}
	}
	JOINT right_hip
	{
		OFFSET	82.8	-127.5	0.300001
		CHANNELS 3  Xrotation Yrotation Zrotation
		JOINT right_knee
		{
			OFFSET	28.2	-396.7	2.2
			CHANNELS 3  Xrotation Yrotation Zrotation
			JOINT right_ankle
			{
				OFFSET	11.7	-411.3	35.4
				CHANNELS 3  Xrotation Yrotation Zrotation
				JOINT right_toes
				{
					OFFSET	0	-60	-88.6
					CHANNELS 3  Xrotation Yrotation Zrotation
					JOINT right_foot_ee
					{
						OFFSET	22.5	-16.5	-42.2
						CHANNELS 3  Xrotation Yrotation Zrotation
						End Site
						{
							OFFSET	1	0	0
						}
					}
				}
			}
		}
	}
}
MOTION
Frames: 6
Frame Time: 0.02
415.363 635.37 -1495.73 -142.091 -76.3617 -136.659 3.84622 -0.539683 -2.21763 3.84887 -0.397512 -2.24746 3.86306 -0.070267 -2.28124 3.85605 -0.429573 -2.24155 -13.7581 -3.13023 5.04535 -13.745 -9.06875 3.8312 -0.0 0.0 -0.0 5.00363 -13.6355 8.95238 9.29149 -24.7535 77.9447 1.30369 -32.8533 0.384372 85.7827 -4.52049 -8.90158 -3.34292 26.0327 -8.39309 -0.0 0.0 -0.0 -3.86327 -23.3907 2.60148 -16.8592 11.382 -77.4519 1.05202 27.5252 -0.257681 28.9188 -0.0985034 3.65389 -3.11092 -28.7955 5.52763 0.0 0.0 0.0 7.84758 -6.51486 -2.11119 -5.44509 0.185584 0.814739 38.6499 -11.9215 -4.95512 2.35574 -0.0 -0.0 -0.0 0.0 -0.0 24.4318 -13.0843 -1.87685 -18.0775 -0.313566 -2.74495 33.9277 -26.8265 4.60024 3.1094 -0.0 -0.0 0.0 0.0 0.0 
424.615 631.803 -1495.38 -145.513 -78.2065 -139.91 3.42771 -0.676869 -2.26343 3.4304 -0.531509 -2.30189 3.45069 -0.1782 -2.3557 3.44336 -0.547903 -2.29804 -13.8539 -2.76155 5.03776 -13.8329 -8.3552 3.93185 -0.0 0.0 -0.0 5.56729 -19.7174 9.68776 9.32172 -23.4972 75.9083 1.10527 -28.7007 0.282774 85.6021 -4.49876 -8.89351 -1.79964 25.6095 0.0252526 -0.0 0.0 -0.0 -3.72928 -22.687 2.57107 -17.2273 10.1703 -77.6776 1.02294 26.8724 -0.244389 27.8911 -0.126706 3.52564 -3.16268 -28.9198 5.73657 0.0 0.0 0.0 6.73657 -9.02676 -1.78381 -7.75162 0.240688 1.16439 38.3125 -11.6839 -4.91836 1.73202 -0.0 -0.0 -0.0 0.0 -0.0 24.2254 -11.6514 -1.61789 -18.7758 -0.308198 -2.85194 31.5589 -26.449 4.32405 2.82154 -0.0 -0.0 0.0 0.0 0.0 
437.615 629.496 -1490.39 -149.607 -80.005 -143.635 3.0814 -0.792222 -2.29785 3.08411 -0.64444 -2.34358 3.10973 -0.269274 -2.41556 3.10217 -0.647284 -2.34279 -13.6693 -2.88051 5.13833 -13.6474 -8.65655 4.00458 -0.0 0.0 -0.0 6.72275 -27.046 11.511 9.12652 -22.7957 74.6123 0.998189 -26.3106 0.233308 85.422 -4.47712 -8.8854 -0.304483 25.6698 8.43903 -0.0 0.0 -0.0 -3.5911 -22.1183 2.49973 -17.9491 9.29464 -77.8027 0.987073 26.0566 -0.228403 28.3447 -0.114543 3.5823 -2.48361 -28.9367 2.07664 0.0 0.0 0.0 4.64728 -12.0455 -1.85076 -9.15438 0.267299 1.37799 37.5265 -11.0624 -4.83057 1.2373 -0.0 -0.0 -0.0 0.0 -0.0 24.687 -8.66201 -1.23169 -19.2613 -0.303697 -2.9263 26.1593 -27.2488 3.70189 2.19972 -0.0 -0.0 0.0 0.0 0.0 
443.999 632.586 -1489.25 -150.9 -81.2785 -144.732 2.72141 -0.884506 -2.38898 2.72428 -0.730743 -2.44039 2.75499 -0.323785 -2.52673 2.7468 -0.718653 -2.44397 -13.6457 -2.41582 5.00792 -13.6162 -7.69282 4.02559 -0.0 0.0 -0.0 7.70195 -28.9533 13.4459 7.10362 -25.3388 73.7247 1.14753 -29.6151 0.303361 84.8273 -4.40586 -8.85814 1.007 25.6685 15.9844 -0.0 0.0 -0.0 -3.49451 -21.865 2.41639 -18.6649 8.64137 -77.7998 0.967766 25.6127 -0.219989 28.7029 -0.104619 3.62699 -1.90687 -29.0109 -1.0486 0.0 0.0 0.0 3.08887 -14.7383 -1.8526 -10.1552 0.283084 1.53075 36.5309 -10.5732 -4.72552 0.496526 -0.0 -0.0 -0.0 0.0 -0.0 25.1945 -5.63955 -1.36837 -19.6011 -0.300172 -2.97831 22.3471 -24.8241 3.17048 1.06331 -0.0 -0.0 0.0 0.0 0.0 
449.393 635.169 -1485.13 -154.059 -81.9648 -147.558 2.44729 -0.847456 -2.45067 2.45036 -0.689846 -2.49959 2.48025 -0.261384 -2.57978 2.47158 -0.665404 -2.5062 -14.749 -2.13099 4.45498 -14.7311 -6.73865 3.52113 -0.0 0.0 -0.0 8.26854 -29.943 14.5735 6.19805 -26.4935 70.4182 1.25849 -31.9389 0.360153 83.9615 -4.30261 -8.81712 2.4871 27.9677 25.4587 -0.0 0.0 -0.0 -3.37775 -21.7684 2.27004 -18.2609 8.27885 -78.1878 0.976228 25.8077 -0.22366 28.4395 -0.111945 3.59413 -1.44636 -28.8578 -3.44763 0.0 0.0 0.0 2.31055 -17.5966 -2.19023 -9.50297 0.2731 1.43117 35.3836 -9.66814 -4.595 -1.1898 0.0 0.0 -0.0 0.0 -0.0 25.5607 -3.53636 -1.45982 -19.8253 -0.297677 -3.01263 19.6204 -21.4382 2.76883 -1.09841 0.0 0.0 0.0 0.0 0.0 
450.32 635.682 -1479.93 -156.433 -81.7734 -149.906 2.1012 -0.821188 -2.48061 2.10438 -0.661728 -2.5278 2.1337 -0.213152 -2.60422 2.12477 -0.621632 -2.53795 -15.5247 -1.27989 3.8714 -15.5034 -4.71687 3.21571 -0.0 0.0 -0.0 8.72973 -29.1133 15.689 5.56259 -27.3152 68.1167 1.34087 -33.5916 0.404743 82.3142 -4.10792 -8.7348 3.77075 28.337 33.8608 -0.0 0.0 -0.0 -3.26472 -21.748 2.11277 -17.943 7.6548 -78.6226 0.992078 26.1711 -0.230606 27.7436 -0.130564 3.50719 -0.965476 -28.7945 -6.01168 0.0 0.0 0.0 1.51417 -20.3739 -2.38278 -12.1057 0.306168 1.82913 37.9311 -9.18247 -4.8246 -1.97122 0.0 0.0 -0.0 0.0 -0.0 26.251 -2.40096 -2.05859 -17.5782 -0.316605 -2.66839 15.4789 -18.8036 2.19782 -4.51398 0.0 0.0 0.0 0.0 0.0 
